<svg xmlns="http://www.w3.org/2000/svg" width="1024" height="1024" viewBox="0 0 180 180" role="img" aria-label="Workshop">
  <!-- Workshop App Store icon. Full-bleed wood-tone square (no alpha, no rounded
       corners). White tool glyph = the woodworking project-tracker brand mark. -->
  <defs>
    <linearGradient id="wk-bg" x1="0" y1="0" x2="0" y2="1">
      <stop offset="0" stop-color="#D49A5C"/>
      <stop offset="1" stop-color="#3D2817"/>
    </linearGradient>
    <radialGradient id="wk-top" cx="50%" cy="-15%" r="85%">
      <stop offset="0" stop-color="#fff" stop-opacity="0.55"/>
      <stop offset="0.55" stop-color="#fff" stop-opacity="0"/>
    </radialGradient>
  </defs>
  <rect width="180" height="180" fill="url(#wk-bg)"/>
  <rect width="180" height="180" fill="url(#wk-top)"/>
  <g transform="translate(28.35 28.35) scale(5.137)" fill="none" stroke="#ffffff" stroke-width="2.2" stroke-linecap="round" stroke-linejoin="round">
    <path d="m15 12-9.373 9.373a1 1 0 0 1-3.001-3L12 9"/>
    <path d="m18 15 4-4"/>
    <path d="m21.5 11.5-1.914-1.914A2 2 0 0 1 19 8.172v-.344a2 2 0 0 0-.586-1.414l-1.657-1.657A6 6 0 0 0 12.516 3H9l1.243 1.243A6 6 0 0 1 12 8.485V10l2 2h1.172a2 2 0 0 1 1.414.586L18.5 14.5"/>
  </g>
</svg>
